HIERARCHY
ROOT Hips
{
	OFFSET 0.000000 0.000000 0.000000
	CHANNELS 6 Xposition Yposition Zposition Zrotation Yrotation Xrotation 
	JOINT LHipJoint
	{
		OFFSET 0.000000 0.000000 0.000000
		CHANNELS 3 Zrotation Yrotation Xrotation
		JOINT LeftUpLeg
		{
			OFFSET 1.363060 -1.794630 0.839290
			CHANNELS 3 Zrotation Yrotation Xrotation
			JOINT LeftLeg
			{
				OFFSET 2.448110 -6.726130 0.000000
				CHANNELS 3 Zrotation Yrotation Xrotation
				JOINT LeftFoot
				{
					OFFSET 2.562200 -7.039590 0.000000
					CHANNELS 3 Zrotation Yrotation Xrotation
					JOINT LeftToeBase
					{
						OFFSET 0.157640 -0.433110 2.322550
						CHANNELS 3 Zrotation Yrotation Xrotation
						End Site
						{
							OFFSET 0.000000 0.000000 0.000000
						}
					}
				}
			}
		}
	}
	JOINT RHipJoint
	{
		OFFSET 0.000000 0.000000 0.000000
		CHANNELS 3 Zrotation Yrotation Xrotation
		JOINT RightUpLeg
		{
			OFFSET -1.305520 -1.794630 0.839290
			CHANNELS 3 Zrotation Yrotation Xrotation
			JOINT RightLeg
			{
				OFFSET -2.542530 -6.985550 0.000000
				CHANNELS 3 Zrotation Yrotation Xrotation
				JOINT RightFoot
				{
					OFFSET -2.568260 -7.056230 0.000000
					CHANNELS 3 Zrotation Yrotation Xrotation
					JOINT RightToeBase
					{
						OFFSET -0.164730 -0.452590 2.363150
						CHANNELS 3 Zrotation Yrotation Xrotation
						End Site
						{
							OFFSET 0.000000 0.000000 0.000000
						}
					}
				}
			}
		}
	}
}
MOTION
Frames: 11
Frame Time: 0.008333
-2.726358 16.806866 -0.744492 -152.410462 83.815544 -124.901695 -12.236657 0.091830 -4.708682 -11.114444 11.227780 -32.493982 -1.324718 2.862028 48.168523 1.246769 6.681890 -8.017448 -0.091300 -0.000000 -62.052800 6.538267 -0.142598 -1.557185 20.103202 -2.764214 -59.706806 4.142659 -3.127605 33.295248 -1.662451 -4.383452 -10.226539 -0.293100 0.000000 -56.290300
-2.516856 16.864371 -0.745463 -152.550444 83.725968 -124.790932 -12.344660 0.068323 -4.819392 -10.645322 11.685185 -32.447481 -1.236827 2.927175 48.462043 1.240555 6.812898 -6.531316 0.087201 -0.000000 -60.246100 6.385407 -0.246532 -1.283242 20.444532 -2.166162 -59.095641 4.417697 -2.684595 30.216623 -1.654009 -4.338967 -9.931781 -0.359000 -0.000000 -56.998600
-2.308367 16.911818 -0.746239 -152.977287 83.653478 -125.009659 -12.437215 0.042431 -4.944256 -10.237389 12.093986 -32.389398 -1.153988 2.999979 48.932684 1.300580 7.332165 -5.531289 0.223000 0.000000 -57.315601 6.258304 -0.304380 -1.040326 20.616341 -1.624999 -58.428431 4.640036 -2.251457 27.389345 -1.624521 -4.259122 -9.569214 -0.425300 0.000000 -57.581000
-2.100874 16.948280 -0.746778 -153.708981 83.601037 -125.580700 -12.514171 0.019018 -5.079194 -9.894530 12.449544 -32.320904 -1.076106 3.082760 49.599887 1.419318 8.216281 -5.032367 0.325500 -0.000000 -53.338800 6.162008 -0.317632 -0.833854 20.612304 -1.149270 -57.727570 4.802606 -1.848918 24.880272 -1.573678 -4.149013 -9.113864 -0.494100 0.000000 -58.079100
-1.894246 16.972970 -0.746911 -154.771454 83.570560 -126.531187 -12.575469 0.003507 -5.219015 -9.620054 12.746526 -32.247840 -1.002290 3.177867 50.477160 1.587707 9.407710 -5.015471 0.386700 -0.000000 -48.494901 6.101214 -0.290801 -0.667064 20.434712 -0.745120 -57.021511 4.902382 -1.497889 22.754173 -1.502945 -4.013736 -8.552451 -0.566500 0.000001 -58.466700
-1.688365 16.985060 -0.746579 -156.119935 83.560691 -127.813623 -12.622876 -0.000962 -5.359403 -9.406085 12.988673 -32.183611 -0.930913 3.287943 51.576704 1.794122 10.816041 -5.434756 0.385400 0.000000 -42.975700 6.076997 -0.233388 -0.537886 20.101675 -0.403151 -56.339895 4.940649 -1.215203 21.061445 -1.417332 -3.866432 -7.883812 -0.642600 0.000001 -58.800200
-1.483110 16.983963 -0.745709 -157.706452 83.567809 -129.372909 -12.658532 0.007625 -5.495692 -9.241954 13.178206 -32.144138 -0.858483 3.414626 52.898906 2.024955 12.337682 -6.197229 0.302600 -0.000000 -37.226400 6.088561 -0.154984 -0.440283 19.631552 -0.102259 -55.716495 4.919644 -1.013145 19.848687 -1.325705 -3.728031 -7.128918 -0.721400 0.000000 -58.985000
-1.278371 16.969274 -0.744255 -159.472603 83.587457 -131.140218 -12.685049 0.030123 -5.622607 -9.115290 13.314944 -32.146092 -0.780028 3.558299 54.436571 2.264981 13.869674 -7.182532 0.132200 -0.000000 -31.746900 6.132847 -0.064938 -0.366588 19.050156 0.179599 -55.187965 4.843804 -0.898113 19.149721 -1.237679 -3.617350 -6.327109 -0.800400 -0.000000 -58.940500
-1.074036 16.940750 -0.742258 -161.349190 83.614833 -133.030213 -12.704962 0.065621 -5.734281 -9.015269 13.396972 -32.212843 -0.689921 3.718023 56.179388 2.498165 15.318145 -8.264983 -0.113600 0.000000 -27.002100 6.204732 0.028513 -0.305207 18.382649 0.473057 -54.799430 4.716733 -0.871567 18.994688 -1.164929 -3.558936 -5.535972 -0.877300 -0.000000 -58.539399
-0.870363 16.898715 -0.739971 -163.277606 83.644261 -134.984610 -12.721845 0.113705 -5.827814 -8.927353 13.427012 -32.340530 -0.584048 3.891767 58.104098 2.708865 16.602615 -9.344149 -0.410600 -0.000000 -23.230700 6.298245 0.120748 -0.260405 17.676799 0.763041 -54.574498 4.547270 -0.932066 19.404240 -1.110366 -3.539044 -4.829138 -0.943600 -0.000000 -57.707100
-0.667499 16.843646 -0.737732 -165.195608 83.670608 -136.934079 -12.738045 0.172110 -5.899438 -8.842833 13.405486 -32.535990 -0.459391 4.076137 60.186513 2.884719 17.663725 -10.350765 -0.728299 -0.000000 -20.480600 6.406983 0.209089 -0.231778 16.973668 1.042458 -54.545963 4.342456 -1.074787 20.394157 -1.077842 -3.550285 -4.286220 -0.991200 0.000000 -56.354500
